name analog
datacolumns 19
datarows 63
range 0.16 0.191
endheader
time	ground_force_vx	ground_force_vy	ground_force_vz	ground_force_px	ground_force_py	ground_force_pz	l_ground_force_vx	l_ground_force_vy	l_ground_force_vz	l_ground_force_px	l_ground_force_py	l_ground_force_pz	ground_torque_x	ground_torque_y	ground_torque_z	l_ground_torque_x	l_ground_torque_y	l_ground_torque_z
0.16	-0.0	-0.0	-0.0	-0.0	-0.0	-0.0	-7.710953712463379	4.196993827819824	-857.8384399414062	-0.0	-0.0	-0.0	-0.0	-0.0	-0.0	251208.90625	1980.866455078125	-5594.36279296875
0.1605	-0.0	-0.0	-0.0	-0.0	-0.0	-0.0	-7.987330436706543	5.309335708618164	-862.753662109375	-0.0	-0.0	-0.0	-0.0	-0.0	-0.0	253239.234375	2013.7996826171875	-5759.15576171875
0.161	-0.0	-0.0	-0.0	-0.0	-0.0	-0.0	-8.562195777893066	6.578367710113525	-869.2445068359375	-0.0	-0.0	-0.0	-0.0	-0.0	-0.0	254880.21875	2130.291259765625	-5908.6357421875
0.1615	-0.0	-0.0	-0.0	-0.0	-0.0	-0.0	-9.18312931060791	7.327587127685547	-871.6508178710938	-0.0	-0.0	-0.0	-0.0	-0.0	-0.0	256104.1875	2333.4111328125	-6055.08837890625
0.162	-0.0	-0.0	-0.0	-0.0	-0.0	-0.0	-9.577754974365234	8.338908195495605	-872.8790283203125	-0.0	-0.0	-0.0	-0.0	-0.0	-0.0	256936.765625	2724.951904296875	-6337.462890625
0.1625	-0.0	-0.0	-0.0	-0.0	-0.0	-0.0	-10.424946784973145	9.057243347167969	-874.6135864257812	-0.0	-0.0	-0.0	-0.0	-0.0	-0.0	257458.1875	2696.9248046875	-6354.1748046875
0.163	-0.0	-0.0	-0.0	-0.0	-0.0	-0.0	-10.07283878326416	9.190983772277832	-876.7306518554688	-0.0	-0.0	-0.0	-0.0	-0.0	-0.0	257916.40625	3071.51025390625	-6398.822265625
0.1635	-0.0	-0.0	-0.0	-0.0	-0.0	-0.0	-10.20436668395996	8.604826927185059	-878.6348266601562	-0.0	-0.0	-0.0	-0.0	-0.0	-0.0	258014.03125	3441.83154296875	-6414.2607421875
0.164	-0.0	-0.0	-0.0	-0.0	-0.0	-0.0	-9.849407196044922	8.35014820098877	-877.9467163085938	-0.0	-0.0	-0.0	-0.0	-0.0	-0.0	258491.515625	3281.753173828125	-6233.49267578125
0.1645	-0.0	-0.0	-0.0	-0.0	-0.0	-0.0	-9.393631935119627	7.855795860290527	-879.0035400390625	-0.0	-0.0	-0.0	-0.0	-0.0	-0.0	258578.28125	3368.688720703125	-6069.763671875
0.165	-0.0	-0.0	-0.0	-0.0	-0.0	-0.0	-9.225921630859377	7.015904426574707	-880.2022705078125	-0.0	-0.0	-0.0	-0.0	-0.0	-0.0	258894.921875	3348.43408203125	-5966.48974609375
0.1655	-0.0	-0.0	-0.0	-0.0	-0.0	-0.0	-9.137210845947266	5.872299671173096	-882.4763793945312	-0.0	-0.0	-0.0	-0.0	-0.0	-0.0	259355.828125	3353.9443359375	-5865.48876953125
0.166	-0.0	-0.0	-0.0	-0.0	-0.0	-0.0	-8.871078491210938	5.038473129272461	-884.9288940429688	-0.0	-0.0	-0.0	-0.0	-0.0	-0.0	259630.828125	3366.596435546875	-5775.03271484375
0.1665	-0.0	-0.0	-0.0	-0.0	-0.0	-0.0	-8.914469718933105	4.194320201873779	-888.1012573242188	-0.0	-0.0	-0.0	-0.0	-0.0	-0.0	260210.90625	3133.82421875	-5715.2802734375
0.167	-0.0	-0.0	-0.0	-0.0	-0.0	-0.0	-9.18802261352539	3.62302565574646	-889.4673461914062	-0.0	-0.0	-0.0	-0.0	-0.0	-0.0	261032.875	2979.139404296875	-5909.99169921875
0.1675	-0.0	-0.0	-0.0	-0.0	-0.0	-0.0	-9.316327095031738	3.3579113483428955	-891.9044799804688	-0.0	-0.0	-0.0	-0.0	-0.0	-0.0	261479.21875	2706.703857421875	-5728.666015625
0.168	-0.0	-0.0	-0.0	-0.0	-0.0	-0.0	-8.603367805480957	2.5597569942474365	-896.10693359375	-0.0	-0.0	-0.0	-0.0	-0.0	-0.0	262154.1875	2483.905029296875	-5507.8837890625
0.1685	-0.0	-0.0	-0.0	-0.0	-0.0	-0.0	-7.806549072265625	1.7200384140014648	-896.44970703125	-0.0	-0.0	-0.0	-0.0	-0.0	-0.0	262197.5	2411.81689453125	-5270.732421875
0.169	-0.0	-0.0	-0.0	-0.0	-0.0	-0.0	-7.008152008056641	0.4877797365188598	-897.1318359375	-0.0	-0.0	-0.0	-0.0	-0.0	-0.0	262271.53125	2137.711669921875	-5061.9033203125
0.1695	-0.0	-0.0	-0.0	-0.0	-0.0	-0.0	-6.694506168365479	0.4851404130458832	-898.1801147460938	-0.0	-0.0	-0.0	-0.0	-0.0	-0.0	262238.90625	2305.3349609375	-4899.626953125
0.17	-0.0	-0.0	-0.0	-0.0	-0.0	-0.0	-5.943622589111328	-0.2626815438270569	-896.2677001953125	-0.0	-0.0	-0.0	-0.0	-0.0	-0.0	261683.75	2371.690185546875	-4780.587890625
0.1705	-0.0	-0.0	-0.0	-0.0	-0.0	-0.0	-5.724337577819824	-0.5299301147460938	-894.004638671875	-0.0	-0.0	-0.0	-0.0	-0.0	-0.0	261069.421875	2383.19189453125	-4557.46923828125
0.171	-0.0	-0.0	-0.0	-0.0	-0.0	-0.0	-5.411357879638672	-0.1311680078506469	-892.0892944335938	-0.0	-0.0	-0.0	-0.0	-0.0	-0.0	260617.21875	2312.426513671875	-4393.57080078125
0.1715	-0.0	-0.0	-0.0	-0.0	-0.0	-0.0	-5.101965427398682	0.3978111147880554	-889.1217651367188	-0.0	-0.0	-0.0	-0.0	-0.0	-0.0	259859.6875	2357.148681640625	-4230.53076171875
0.17200000000000001	-0.0	-0.0	-0.0	-0.0	-0.0	-0.0	-4.744407653808594	1.0166666507720947	-887.3624877929688	-0.0	-0.0	-0.0	-0.0	-0.0	-0.0	258832.515625	2697.138671875	-4171.67138671875
0.17250000000000001	-0.0	-0.0	-0.0	-0.0	-0.0	-0.0	-4.215176105499268	1.4575893878936768	-883.3536376953125	-0.0	-0.0	-0.0	-0.0	-0.0	-0.0	257749.640625	2695.74267578125	-4066.600830078125
0.17300000000000001	-0.0	-0.0	-0.0	-0.0	-0.0	-0.0	-3.681705474853516	2.076594114303589	-879.1604614257812	-0.0	-0.0	-0.0	-0.0	-0.0	-0.0	256360.046875	2899.657958984375	-3813.711669921875
0.17350000000000002	-0.0	-0.0	-0.0	-0.0	-0.0	-0.0	-3.193921566009521	2.2527008056640625	-876.0213623046875	-0.0	-0.0	-0.0	-0.0	-0.0	-0.0	255390.203125	2983.705810546875	-3813.584228515625
0.17400000000000002	-0.0	-0.0	-0.0	-0.0	-0.0	-0.0	-3.5479984283447266	2.561328887939453	-873.4014892578125	-0.0	-0.0	-0.0	-0.0	-0.0	-0.0	254018.171875	3312.59814453125	-3798.724853515625
0.17450000000000002	-0.0	-0.0	-0.0	-0.0	-0.0	-0.0	-3.681730508804321	2.870289087295532	-870.6094360351562	-0.0	-0.0	-0.0	-0.0	-0.0	-0.0	252975.921875	3246.130859375	-3769.22216796875
0.17500000000000002	-0.0	-0.0	-0.0	-0.0	-0.0	-0.0	-4.169390678405762	3.488682746887207	-868.5147094726562	-0.0	-0.0	-0.0	-0.0	-0.0	-0.0	252115.15625	3509.456787109375	-3888.06298828125
0.17550000000000002	-0.0	-0.0	-0.0	-0.0	-0.0	-0.0	-4.302556037902832	3.974641084671021	-866.7686157226562	-0.0	-0.0	-0.0	-0.0	-0.0	-0.0	251129.828125	3094.40576171875	-3754.690185546875
0.176	-0.0	-0.0	-0.0	-0.0	-0.0	-0.0	-3.637424945831299	4.548426151275635	-868.3367309570312	-0.0	-0.0	-0.0	-0.0	-0.0	-0.0	250769.3125	3073.557861328125	-3501.7880859375
0.1765	-0.0	-0.0	-0.0	-0.0	-0.0	-0.0	-2.5280745029449463	5.344007968902588	-868.689208984375	-0.0	-0.0	-0.0	-0.0	-0.0	-0.0	250659.625	2204.501220703125	-3055.836669921875
0.177	-0.0	-0.0	-0.0	-0.0	-0.0	-0.0	-0.7532681822776794	5.874162197113037	-871.82958984375	-0.0	-0.0	-0.0	-0.0	-0.0	-0.0	250533.8125	1460.2574462890625	-2549.80615234375
0.1775	-0.0	-0.0	-0.0	-0.0	-0.0	-0.0	1.1073918342590332	6.050332546234131	-873.7531127929688	-0.0	-0.0	-0.0	-0.0	-0.0	-0.0	250228.21875	690.7645874023438	-1867.3089599609373
0.178	-0.0	-0.0	-0.0	-0.0	-0.0	-0.0	3.3277251720428467	4.769371032714844	-875.675048828125	-0.0	-0.0	-0.0	-0.0	-0.0	-0.0	249607.09375	-262.3158569335937	-1286.688232421875
0.1785	-0.0	-0.0	-0.0	-0.0	-0.0	-0.0	5.145225524902344	3.40339469909668	-875.6790771484375	-0.0	-0.0	-0.0	-0.0	-0.0	-0.0	249088.515625	-1064.28466796875	-485.3661804199219
0.179	-0.0	-0.0	-0.0	-0.0	-0.0	-0.0	7.138850688934326	1.41314697265625	-878.2965087890625	-0.0	-0.0	-0.0	-0.0	-0.0	-0.0	248473.578125	-1708.432373046875	154.38961791992188
0.1795	-0.0	-0.0	-0.0	-0.0	-0.0	-0.0	8.561139106750488	-1.3673479557037354	-878.6292724609375	-0.0	-0.0	-0.0	-0.0	-0.0	-0.0	247506.84375	-2268.058837890625	671.8984375
0.18	-0.0	-0.0	-0.0	-0.0	-0.0	-0.0	8.872292518615723	-3.930919170379639	-878.9915771484375	-0.0	-0.0	-0.0	-0.0	-0.0	-0.0	246462.46875	-2749.372802734375	1191.873046875
0.1805	-0.0	-0.0	-0.0	-0.0	-0.0	-0.0	9.40204620361328	-6.928732395172119	-879.512939453125	-0.0	-0.0	-0.0	-0.0	-0.0	-0.0	245274.046875	-2718.3828125	1427.9332275390625
0.181	-0.0	-0.0	-0.0	-0.0	-0.0	-0.0	9.894869804382324	-11.03732967376709	-877.080322265625	-0.0	-0.0	-0.0	-0.0	-0.0	-0.0	243683.703125	-2543.99609375	1664.4521484375
0.1815	-0.0	-0.0	-0.0	-0.0	-0.0	-0.0	9.627415657043455	-15.851457595825195	-874.814453125	-0.0	-0.0	-0.0	-0.0	-0.0	-0.0	242165.921875	-2012.13427734375	1900.2958984375
0.182	-0.0	-0.0	-0.0	-0.0	-0.0	-0.0	8.388933181762695	-19.915719985961918	-870.9619750976562	-0.0	-0.0	-0.0	-0.0	-0.0	-0.0	240177.09375	-1033.68359375	1720.3204345703125
0.1825	-0.0	-0.0	-0.0	-0.0	-0.0	-0.0	7.107644081115723	-22.12010955810547	-866.0812377929688	-0.0	-0.0	-0.0	-0.0	-0.0	-0.0	238210.1875	-231.0789337158203	1408.177978515625
0.183	-0.0	-0.0	-0.0	-0.0	-0.0	-0.0	7.138349533081055	-23.315021514892575	-862.9244384765625	-0.0	-0.0	-0.0	-0.0	-0.0	-0.0	237025.15625	355.2639465332031	1408.516357421875
0.1835	-0.0	-0.0	-0.0	-0.0	-0.0	-0.0	7.282534599304199	-23.31281852722168	-858.9129638671875	-0.0	-0.0	-0.0	-0.0	-0.0	-0.0	236128.8125	822.4314575195312	1363.8035888671875
0.184	-0.0	-0.0	-0.0	-0.0	-0.0	-0.0	6.430459499359131	-22.653444290161133	-858.2230834960938	-0.0	-0.0	-0.0	-0.0	-0.0	-0.0	235365.65625	1359.5943603515625	992.2060546875
0.1845	-0.0	-0.0	-0.0	-0.0	-0.0	-0.0	5.147452831268311	-21.3330135345459	-856.28125	-0.0	-0.0	-0.0	-0.0	-0.0	-0.0	235352.328125	1953.512451171875	456.1728820800781
0.185	-0.0	-0.0	-0.0	-0.0	-0.0	-0.0	4.126240253448486	-18.29205703735352	-856.4970092773438	-0.0	-0.0	-0.0	-0.0	-0.0	-0.0	235349.9375	2483.30078125	-1.7115999460220337
0.1855	-0.0	-0.0	-0.0	-0.0	-0.0	-0.0	3.018660545349121	-14.8859281539917	-855.2420043945312	-0.0	-0.0	-0.0	-0.0	-0.0	-0.0	235592.359375	3086.7060546875	-400.013916015625
0.186	-0.0	-0.0	-0.0	-0.0	-0.0	-0.0	1.4598649740219116	-11.8908052444458	-855.0520629882812	-0.0	-0.0	-0.0	-0.0	-0.0	-0.0	235754.734375	3558.9296875	-1054.624755859375
0.1865	-0.0	-0.0	-0.0	-0.0	-0.0	-0.0	0.2661323547363281	-8.254007339477539	-856.3318481445312	-0.0	-0.0	-0.0	-0.0	-0.0	-0.0	236214.46875	4270.72607421875	-1544.437255859375
0.187	-0.0	-0.0	-0.0	-0.0	-0.0	-0.0	-1.2447924613952637	-5.173891067504883	-856.998291015625	-0.0	-0.0	-0.0	-0.0	-0.0	-0.0	236470.375	4887.08740234375	-1943.768798828125
0.1875	-0.0	-0.0	-0.0	-0.0	-0.0	-0.0	-2.4839019775390625	-2.168348789215088	-856.480712890625	-0.0	-0.0	-0.0	-0.0	-0.0	-0.0	237266.265625	5435.96435546875	-2315.112060546875
0.188	-0.0	-0.0	-0.0	-0.0	-0.0	-0.0	-3.0651328563690186	0.1735829710960388	-859.0814819335938	-0.0	-0.0	-0.0	-0.0	-0.0	-0.0	237336.59375	5837.86181640625	-2494.94287109375
0.1885	-0.0	-0.0	-0.0	-0.0	-0.0	-0.0	-3.8636534214019775	2.1228628158569336	-859.947998046875	-0.0	-0.0	-0.0	-0.0	-0.0	-0.0	237502.828125	6140.91796875	-2668.80615234375
0.189	-0.0	-0.0	-0.0	-0.0	-0.0	-0.0	-3.7258529663085938	1.8939788341522217	-860.2705078125	-0.0	-0.0	-0.0	-0.0	-0.0	-0.0	237841.21875	6353.25732421875	-2593.90283203125
0.1895	-0.0	-0.0	-0.0	-0.0	-0.0	-0.0	-3.8111414909362793	1.80548357963562	-862.3775634765625	-0.0	-0.0	-0.0	-0.0	-0.0	-0.0	237942.890625	6840.173828125	-2598.427490234375
0.19	-0.0	-0.0	-0.0	-0.0	-0.0	-0.0	-3.942373275756836	0.6711351871490479	-862.0829467773438	-0.0	-0.0	-0.0	-0.0	-0.0	-0.0	237944.59375	7011.87451171875	-2420.838623046875
0.1905	-0.0	-0.0	-0.0	-0.0	-0.0	-0.0	-4.04182243347168	-0.8335984945297241	-863.4663696289062	-0.0	-0.0	-0.0	-0.0	-0.0	-0.0	237994.578125	7178.896484375	-2345.3232421875
0.191	-0.0	-0.0	-0.0	-0.0	-0.0	-0.0	-4.158197402954102	-2.6384902000427246	-862.404541015625	-0.0	-0.0	-0.0	-0.0	-0.0	-0.0	237631.5625	7516.2978515625	-2258.094482421875
